<svg width="1280" height="630" viewBox="0 0 1280 630" fill="none" xmlns="http://www.w3.org/2000/svg">
<path d="M559 361C700.167 606.643 1045 715.5 1280 550V0H0V332C95.5 174.5 445.5 163.5 559 361Z" fill="white"/>
<path opacity="0.3" d="M765.462 167.265C715.863 197.488 686.47 252.917 691.072 310.855C693.511 340.42 704.514 369 733.596 384.57C811.151 426.09 1149.75 426.868 1199.85 353.43C1249.95 279.992 1231.32 175.517 1122.34 131.99C1027.89 94.2414 893.569 89.259 765.462 167.265Z" fill="#5AB658" fill-opacity="0.52"/>
<path d="M1114.78 379.38V335.507C1114.78 333.377 1115.63 331.333 1117.13 329.825C1118.64 328.317 1120.68 327.467 1122.81 327.463H1154.8C1156.93 327.467 1158.97 328.317 1160.48 329.825C1161.98 331.333 1162.83 333.377 1162.83 335.507V379.38" stroke="#042B4F" stroke-width="2" stroke-miterlimit="10"/>
<path opacity="0.08" d="M1114.78 379.38V335.507C1114.78 333.377 1115.63 331.333 1117.13 329.825C1118.64 328.317 1120.68 327.467 1122.81 327.463H1154.8C1156.93 327.467 1158.97 328.317 1160.48 329.825C1161.98 331.333 1162.83 333.377 1162.83 335.507V379.38" stroke="black" stroke-width="2" stroke-miterlimit="10"/>
<path d="M899.52 275.13C899.52 275.13 867.792 287.863 878.051 324.747C888.309 361.63 889.261 365.627 912.149 363.36C935.037 361.094 920.211 324.747 920.211 324.747L899.52 275.13Z" fill="#00417E"/>
<path d="M887.6 161.262C887.6 161.262 799.612 181.658 776.465 233.212L854.401 239.094L874.366 226.984L887.6 161.262Z" fill="#5AB658"/>
<path opacity="0.46" d="M887.6 161.262C887.6 161.262 799.612 181.658 776.465 233.212L854.401 239.094L874.366 226.984L887.6 161.262Z" fill="white"/>
<path opacity="0.45" d="M970.727 514.649C1117.94 514.649 1237.29 505.486 1237.29 494.183C1237.29 482.88 1117.94 473.717 970.727 473.717C823.51 473.717 704.168 482.88 704.168 494.183C704.168 505.486 823.51 514.649 970.727 514.649Z" fill="#8286EE" fill-opacity="0.4"/>
<path d="M857.187 449.151C857.187 449.151 849.488 454.722 842.412 450.725C835.337 446.729 829.143 452.057 833.987 457.87C838.831 463.683 859.591 466.52 859.591 466.52L867.394 453.926L857.187 449.151Z" fill="#5AB658"/>
<path d="M996.088 473.769C996.088 473.769 999.445 482.678 1007.54 483.232C1015.64 483.786 1017.92 491.674 1010.64 493.854C1003.35 496.034 984.48 486.934 984.48 486.934L984.93 472.108L996.088 473.769Z" fill="#5AB658"/>
<path opacity="0.58" d="M760.999 472.938C760.999 472.938 742.678 467.921 738.699 450.881C738.699 450.881 767.088 445.137 767.884 474.444L760.999 472.938Z" fill="#5AB658"/>
<path opacity="0.73" d="M763.248 471.07C763.248 471.07 750.446 450.829 761.708 431.903C761.708 431.903 783.298 445.622 773.697 471.105L763.248 471.07Z" fill="#5AB658"/>
<path d="M766.552 471.07C766.552 471.07 773.299 449.704 793.748 445.656C793.748 445.656 797.571 459.496 780.513 471.139L766.552 471.07Z" fill="#5AB658"/>
<path d="M753.266 470.638L756.968 496.051L780.357 496.155L783.8 470.776L753.266 470.638Z" fill="#24285B"/>
<path d="M894.226 116.022C894.226 116.022 897.236 126.921 901.613 133.322C902.039 133.937 902.582 134.462 903.211 134.867C903.84 135.272 904.543 135.548 905.28 135.68C906.016 135.811 906.771 135.796 907.502 135.635C908.232 135.474 908.924 135.17 909.537 134.741C912.702 132.492 916.335 128.53 915.436 122.492L915.176 112.112C914.908 110.024 913.998 108.071 912.573 106.522C911.148 104.972 909.277 103.903 907.218 103.462C899.658 101.334 892.15 109.5 894.226 116.022Z" fill="#F4A28C"/>
<path d="M917.114 117.51L931.767 151.539L912.443 158.269L909.536 130.814L917.114 117.51Z" fill="#F4A28C"/>
<path d="M919.588 119.742C919.668 119.964 919.673 120.207 919.601 120.432C919.529 120.657 919.384 120.852 919.19 120.987C917.865 121.955 916.26 122.461 914.62 122.43C912.979 122.399 911.395 121.831 910.107 120.814C908.63 119.725 907.502 118.228 906.863 116.507C906.223 114.786 906.1 112.916 906.509 111.126C903.529 112.943 900.348 114.406 897.029 115.486C895.915 115.865 894.745 116.052 893.569 116.039L887.894 109.119C887.894 109.119 880.576 102.788 884.624 99.3103C888.673 95.833 892.859 100.366 895.195 95.0891C897.53 89.8126 897.859 88.048 902.582 88.6535C907.305 89.259 904.018 94.0511 910.419 91.5945C916.82 89.1379 917.962 91.7329 919.069 94.622C919.317 95.6686 919.245 96.7656 918.861 97.7706C916.721 104.98 916.976 112.689 919.588 119.742Z" fill="#24285B"/>
<path d="M908.862 120.918C908.862 120.918 907.426 116.818 910.592 115.987C913.758 115.157 915.886 121.177 911.924 123.184L908.862 120.918Z" fill="#F4A28C"/>
<path d="M896.475 122.786L895.039 127.976C894.929 128.272 894.901 128.592 894.959 128.902C895.018 129.212 895.16 129.5 895.37 129.735C895.58 129.97 895.851 130.143 896.152 130.236C896.454 130.328 896.775 130.337 897.081 130.26L901.423 129.516L896.475 122.786Z" fill="#F4A28C"/>
<path d="M1152.88 323.553H1124.58V332.722H1152.88V323.553Z" fill="#24285B"/>
<path opacity="0.31" d="M909.986 134.464C909.986 134.464 912.477 133.616 916.422 128.703C916.422 128.703 918.238 135.883 910.782 142.543L909.986 134.464Z" fill="#CE8172"/>
<path d="M904.468 155.553L915.591 153.546C920.793 152.607 925.943 151.406 931.023 149.947C950.053 144.515 1006.05 131.73 1021.99 164.133C1041.29 203.387 1009.06 330.732 1009.06 330.732H920.833C920.833 330.732 902.824 277.691 877.082 244.89C851.339 212.089 833.33 175.603 904.468 155.553Z" fill="#5AB658"/>
<path opacity="0.08" d="M887.6 161.262C887.6 161.262 883.171 189.495 921.958 168.182L912.01 154.342C903.614 155.606 895.411 157.931 887.6 161.262Z" fill="black"/>
<path d="M788.212 264.681C770.635 259.214 768.005 235.271 783.938 225.981C789.721 222.724 796.17 220.831 802.795 220.445C832.344 218.265 882.687 215.514 882.687 215.514C882.687 215.514 912.997 225.375 908.239 240.15C903.482 254.924 882.151 231.396 882.151 231.396C882.151 231.396 825.822 276.376 788.212 264.681Z" fill="#F4A28C"/>
<path d="M883.055 213.633L872.706 215.075L875.642 236.151L885.991 234.709L883.055 213.633Z" fill="#24285B"/>
<path d="M883.071 211.123L872.725 212.586L873.65 219.13L883.996 217.667L883.071 211.123Z" fill="#042B4F"/>
<path d="M912.01 154.203C912.01 154.203 898.586 166.555 914.104 169.202C929.622 171.849 931.023 149.947 931.023 149.947L912.01 154.203Z" fill="#F4A28C"/>
<path d="M920.92 330.732L854.401 449.151L871.58 461.105C871.58 461.105 908.326 399.777 952.077 368.965C953.492 367.979 955.119 367.337 956.826 367.093C958.534 366.848 960.275 367.007 961.91 367.557C963.545 368.107 965.029 369.033 966.241 370.26C967.454 371.487 968.362 372.981 968.893 374.623C980.726 411.212 981.729 474.962 981.729 474.962H1002.01L1009.06 330.784L920.92 330.732Z" fill="#24285B"/>
<path opacity="0.08" d="M920.92 330.732C920.92 330.732 954.049 304.782 965.762 267.743C966.385 265.863 967.489 264.178 968.965 262.856C970.44 261.535 972.235 260.621 974.172 260.207C976.109 259.792 978.121 259.892 980.008 260.494C981.895 261.097 983.592 262.182 984.93 263.643L1016.42 297.689L1022.77 262.103L999.739 189.236L956.16 161.262L947.51 195.014L920.92 330.732Z" fill="black"/>
<path d="M906.613 297.966C906.613 297.966 927.044 277.691 931.023 209.978C934.327 153.65 942.407 142.647 959.274 138.702C985.328 132.578 991.539 140.329 999.739 151.902C999.739 151.902 958.08 154.48 959.533 180.551C960.987 206.622 955.191 299.489 920.92 330.732C920.92 330.732 905.021 329.4 906.613 297.966Z" fill="#042B4F"/>
<path opacity="0.46" d="M906.613 297.966C906.613 297.966 927.044 277.691 931.023 209.978C934.327 153.65 942.407 142.647 959.274 138.702C985.328 132.578 991.539 140.329 999.739 151.902C999.739 151.902 958.08 154.48 959.533 180.551C960.987 206.622 955.191 299.489 920.92 330.732C920.92 330.732 905.021 329.4 906.613 297.966Z" fill="white"/>
<path d="M963.72 185.205C955.07 164.445 979.169 138.253 1000.05 146.349C1017.9 153.269 1036.99 168.562 1047.35 199.356C1071.97 272.553 1127.43 307.931 1127.43 307.931C1127.43 307.931 1155.73 312.602 1155.73 322.896C1155.73 333.189 1122.27 322.896 1122.27 322.896C1122.27 322.896 1035.43 286.86 990.379 228.957C976.92 211.57 968.651 197.021 963.72 185.205Z" fill="#F4A28C"/>
<path d="M1015.59 255.789C1015.59 255.789 1050.08 244.111 1058.84 227.036C1058.84 227.036 1046.34 159.722 1001.97 145.242C987.369 140.484 971.055 145.83 963.409 159.082C954.136 175.24 956.16 205.031 1015.59 255.789Z" fill="#5AB658"/>
<path opacity="0.46" d="M1015.59 255.789C1015.59 255.789 1050.08 244.111 1058.84 227.036C1058.84 227.036 1046.34 159.722 1001.97 145.242C987.369 140.484 971.055 145.83 963.409 159.082C954.136 175.24 956.16 205.031 1015.59 255.789Z" fill="white"/>
<path d="M1183.91 366.336H1093.68V483.163H1183.91V366.336Z" fill="#042B4F"/>
<path d="M1116.77 483.163H1105.75V494.183H1116.77V483.163Z" fill="#24285B"/>
<path d="M1170.33 483.163H1159.31V494.183H1170.33V483.163Z" fill="#24285B"/>
<path opacity="0.08" d="M1121.18 388.047H1108.64V457.853H1121.18V388.047Z" fill="black"/>
<path opacity="0.08" d="M1145.08 388.047H1132.53V457.853H1145.08V388.047Z" fill="black"/>
<path opacity="0.08" d="M1167.51 388.047H1154.97V457.853H1167.51V388.047Z" fill="black"/>
<path d="M1009.06 119.551C1029.17 119.551 1045.46 103.255 1045.46 83.1521C1045.46 63.0494 1029.17 46.7529 1009.06 46.7529C988.961 46.7529 972.664 63.0494 972.664 83.1521C972.664 103.255 988.961 119.551 1009.06 119.551Z" fill="#042B4F"/>
<path d="M994.981 83.1521L963.841 114.171L1005.12 97.7014L994.981 83.1521Z" fill="#042B4F"/>
<path d="M1011.19 66.769H1005.12V85.9374H1011.19V66.769Z" fill="white"/>
<path d="M1011.19 91.2139H1005.12V97.2862H1011.19V91.2139Z" fill="white"/>
</svg>
