<?xml version="1.0" encoding="utf-8"?>
<!-- Generator: Adobe Illustrator 24.0.1, SVG Export Plug-In . SVG Version: 6.00 Build 0)  -->
<svg version="1.1" id="Layer_1" xmlns="http://www.w3.org/2000/svg" xmlns:xlink="http://www.w3.org/1999/xlink" x="0px" y="0px"
	 viewBox="0 0 414 476" style="enable-background:new 0 0 414 476;" xml:space="preserve">
<style type="text/css">
	.st0{fill:#FFFFFF;}
	.st1{opacity:0.3;fill:#5AB658;fill-opacity:0.52;enable-background:new    ;}
	.st2{fill:none;stroke:#042B4F;stroke-width:2;stroke-miterlimit:10;}
	.st3{opacity:8.000000e-02;fill:none;stroke:#000000;stroke-width:2;stroke-miterlimit:10;enable-background:new    ;}
	.st4{fill:#00417E;}
	.st5{fill:#5AB658;}
	.st6{opacity:0.46;fill:#FFFFFF;enable-background:new    ;}
	.st7{opacity:0.45;fill:#8286EE;fill-opacity:0.4;enable-background:new    ;}
	.st8{opacity:0.58;fill:#5AB658;enable-background:new    ;}
	.st9{opacity:0.73;fill:#5AB658;enable-background:new    ;}
	.st10{fill:#24285B;}
	.st11{fill:#F4A28C;}
	.st12{opacity:0.31;fill:#CE8172;enable-background:new    ;}
	.st13{opacity:8.000000e-02;enable-background:new    ;}
	.st14{fill:#042B4F;}
</style>
<path class="st0" d="M74.3,348c58,120.8,229,167.9,339.7,89.5V-74H0v363.5C0,289.5,53,303.5,74.3,348z"/>
<path class="st1" d="M138,158.6c-26.7,16.2-42.5,46-40,77.2c1.3,15.9,7.2,31.3,22.9,39.6c41.7,22.3,223.7,22.7,250.6-16.7
	c26.9-39.5,16.9-95.6-41.7-119C279.1,119.3,206.9,116.6,138,158.6z"/>
<path class="st2" d="M325.8,272.6V249c0-1.1,0.5-2.2,1.3-3.1c0.8-0.8,1.9-1.3,3.1-1.3h17.2c1.1,0,2.2,0.5,3.1,1.3
	c0.8,0.8,1.3,1.9,1.3,3.1v23.6"/>
<path class="st3" d="M325.8,272.6V249c0-1.1,0.5-2.2,1.3-3.1c0.8-0.8,1.9-1.3,3.1-1.3h17.2c1.1,0,2.2,0.5,3.1,1.3
	c0.8,0.8,1.3,1.9,1.3,3.1v23.6"/>
<path class="st4" d="M210.1,216.5c0,0-17.1,6.8-11.5,26.7c5.5,19.8,6,22,18.3,20.8c12.3-1.2,4.3-20.8,4.3-20.8L210.1,216.5z"/>
<path class="st5" d="M203.7,155.3c0,0-47.3,11-59.7,38.7l41.9,3.2l10.7-6.5L203.7,155.3z"/>
<path class="st6" d="M203.7,155.3c0,0-47.3,11-59.7,38.7l41.9,3.2l10.7-6.5L203.7,155.3z"/>
<path class="st7" d="M248.4,345.3c79.1,0,143.3-4.9,143.3-11c0-6.1-64.2-11-143.3-11c-79.1,0-143.3,4.9-143.3,11
	C105.1,340.4,169.3,345.3,248.4,345.3z"/>
<path class="st5" d="M187.4,310.1c0,0-4.1,3-7.9,0.8c-3.8-2.1-7.1,0.7-4.5,3.8c2.6,3.1,13.8,4.7,13.8,4.7l4.2-6.8L187.4,310.1z"/>
<path class="st5" d="M262,323.3c0,0,1.8,4.8,6.2,5.1s5.6,4.5,1.7,5.7c-3.9,1.2-14.1-3.7-14.1-3.7l0.2-8L262,323.3z"/>
<path class="st8" d="M135.6,322.9c0,0-9.8-2.7-12-11.9c0,0,15.3-3.1,15.7,12.7L135.6,322.9z"/>
<path class="st9" d="M136.9,321.9c0,0-6.9-10.9-0.8-21.1c0,0,11.6,7.4,6.4,21.1L136.9,321.9z"/>
<path class="st5" d="M138.6,321.9c0,0,3.6-11.5,14.6-13.7c0,0,2.1,7.4-7.1,13.7L138.6,321.9z"/>
<path class="st10" d="M131.5,321.6l2,13.7l12.6,0.1l1.9-13.6L131.5,321.6z"/>
<path class="st11" d="M207.3,131c0,0,1.6,5.9,4,9.3c0.2,0.3,0.5,0.6,0.9,0.8c0.3,0.2,0.7,0.4,1.1,0.4c0.4,0.1,0.8,0.1,1.2,0
	c0.4-0.1,0.8-0.2,1.1-0.5c1.7-1.2,3.7-3.3,3.2-6.6l-0.1-5.6c-0.1-1.1-0.6-2.2-1.4-3c-0.8-0.8-1.8-1.4-2.9-1.6
	C210.2,123.1,206.1,127.5,207.3,131z"/>
<path class="st11" d="M219.6,131.8l7.9,18.3l-10.4,3.6l-1.6-14.8L219.6,131.8z"/>
<path class="st10" d="M220.9,133c0,0.1,0,0.2,0,0.4c0,0.1-0.1,0.2-0.2,0.3c-0.7,0.5-1.6,0.8-2.5,0.8c-0.9,0-1.7-0.3-2.4-0.9
	c-0.8-0.6-1.4-1.4-1.7-2.3c-0.3-0.9-0.4-1.9-0.2-2.9c-1.6,1-3.3,1.8-5.1,2.3c-0.6,0.2-1.2,0.3-1.9,0.3l-3.1-3.7c0,0-3.9-3.4-1.8-5.3
	c2.2-1.9,4.4,0.6,5.7-2.3c1.3-2.8,1.4-3.8,4-3.5c2.5,0.3,0.8,2.9,4.2,1.6c3.4-1.3,4.1,0.1,4.7,1.6c0.1,0.6,0.1,1.2-0.1,1.7
	C219.4,125.1,219.5,129.2,220.9,133z"/>
<path class="st11" d="M215.1,133.6c0,0-0.8-2.2,0.9-2.7c1.7-0.4,2.8,2.8,0.7,3.9L215.1,133.6z"/>
<path class="st11" d="M208.5,134.6l-0.8,2.8c-0.1,0.2-0.1,0.3,0,0.5c0,0.2,0.1,0.3,0.2,0.4c0.1,0.1,0.3,0.2,0.4,0.3
	c0.2,0.1,0.3,0.1,0.5,0l2.3-0.4L208.5,134.6z"/>
<path class="st10" d="M346.3,242.6h-15.2v4.9h15.2V242.6z"/>
<path class="st12" d="M215.7,140.9c0,0,1.3-0.5,3.5-3.1c0,0,1,3.9-3,7.4L215.7,140.9z"/>
<path class="st5" d="M212.8,152.3l6-1.1c2.8-0.5,5.6-1.2,8.3-1.9c10.2-2.9,40.3-9.8,48.9,7.6c10.4,21.1-6.9,89.6-6.9,89.6h-47.4
	c0,0-9.7-28.5-23.5-46.1C184.2,182.6,174.5,163,212.8,152.3z"/>
<path class="st13" d="M203.7,155.3c0,0-2.4,15.2,18.5,3.7l-5.3-7.4C212.3,152.3,207.9,153.5,203.7,155.3z"/>
<path class="st11" d="M150.3,210.9c-9.4-2.9-10.9-15.8-2.3-20.8c3.1-1.8,6.6-2.8,10.1-3c15.9-1.2,42.9-2.7,42.9-2.7
	s16.3,5.3,13.7,13.2c-2.6,7.9-14-4.7-14-4.7S170.5,217.2,150.3,210.9z"/>
<path class="st10" d="M201.3,183.5l-5.6,0.8l1.6,11.3l5.6-0.8L201.3,183.5z"/>
<path class="st14" d="M201.3,182.1l-5.6,0.8l0.5,3.5l5.6-0.8L201.3,182.1z"/>
<path class="st11" d="M216.8,151.5c0,0-7.2,6.6,1.1,8.1c8.3,1.4,9.1-10.4,9.1-10.4L216.8,151.5z"/>
<path class="st10" d="M221.6,246.4l-35.8,63.7l9.2,6.4c0,0,19.8-33,43.3-49.5c0.8-0.5,1.6-0.9,2.6-1c0.9-0.1,1.9,0,2.7,0.2
	c0.9,0.3,1.7,0.8,2.3,1.5c0.7,0.7,1.1,1.5,1.4,2.3c6.4,19.7,6.9,53.9,6.9,53.9h10.9l3.8-77.5L221.6,246.4z"/>
<path class="st13" d="M221.6,246.4c0,0,17.8-14,24.1-33.9c0.3-1,0.9-1.9,1.7-2.6c0.8-0.7,1.8-1.2,2.8-1.4c1-0.2,2.1-0.2,3.1,0.2
	c1,0.3,1.9,0.9,2.6,1.7l16.9,18.3l3.4-19.1L264,170.4l-23.4-15l-4.6,18.1L221.6,246.4z"/>
<path class="st14" d="M213.9,228.8c0,0,11-10.9,13.1-47.3c1.8-30.3,6.1-36.2,15.2-38.3c14-3.3,17.3,0.9,21.8,7.1
	c0,0-22.4,1.4-21.6,15.4c0.8,14-2.3,63.9-20.8,80.7C221.6,246.4,213.1,245.7,213.9,228.8z"/>
<path class="st6" d="M213.9,228.8c0,0,11-10.9,13.1-47.3c1.8-30.3,6.1-36.2,15.2-38.3c14-3.3,17.3,0.9,21.8,7.1
	c0,0-22.4,1.4-21.6,15.4c0.8,14-2.3,63.9-20.8,80.7C221.6,246.4,213.1,245.7,213.9,228.8z"/>
<path class="st11" d="M244.6,168.2c-4.6-11.2,8.3-25.2,19.5-20.9c9.6,3.7,19.9,11.9,25.4,28.5c13.2,39.3,43.1,58.4,43.1,58.4
	s15.2,2.5,15.2,8c0,5.5-18,0-18,0s-46.7-19.4-70.9-50.5C251.7,182.4,247.3,174.5,244.6,168.2z"/>
<path class="st5" d="M272.5,206.1c0,0,18.5-6.3,23.2-15.5c0,0-6.7-36.2-30.6-44c-7.8-2.6-16.6,0.3-20.7,7.4
	C239.5,162.8,240.6,178.9,272.5,206.1z"/>
<path class="st6" d="M272.5,206.1c0,0,18.5-6.3,23.2-15.5c0,0-6.7-36.2-30.6-44c-7.8-2.6-16.6,0.3-20.7,7.4
	C239.5,162.8,240.6,178.9,272.5,206.1z"/>
<path class="st14" d="M363,265.6h-48.5v62.8H363V265.6z"/>
<path class="st10" d="M326.9,328.4H321v5.9h5.9V328.4z"/>
<path class="st10" d="M355.7,328.4h-5.9v5.9h5.9V328.4z"/>
<path class="st13" d="M329.3,277.2h-6.7v37.5h6.7V277.2z"/>
<path class="st13" d="M342.1,277.2h-6.7v37.5h6.7V277.2z"/>
<path class="st13" d="M354.2,277.2h-6.7v37.5h6.7V277.2z"/>
<path class="st14" d="M269,132.9c10.8,0,19.6-8.8,19.6-19.6c0-10.8-8.8-19.6-19.6-19.6c-10.8,0-19.6,8.8-19.6,19.6
	C249.4,124.1,258.2,132.9,269,132.9z"/>
<path class="st14" d="M261.4,113.3L244.7,130l22.2-8.9L261.4,113.3z"/>
<path class="st0" d="M270.1,104.5h-3.3v10.3h3.3V104.5z"/>
<path class="st0" d="M270.1,117.7h-3.3v3.3h3.3V117.7z"/>
</svg>
