<?xml version="1.0" encoding="utf-8"?>
<!-- Generator: Adobe Illustrator 24.0.1, SVG Export Plug-In . SVG Version: 6.00 Build 0)  -->
<svg version="1.1" id="Layer_1" xmlns="http://www.w3.org/2000/svg" xmlns:xlink="http://www.w3.org/1999/xlink" x="0px" y="0px"
	 viewBox="0 0 1280 971" style="enable-background:new 0 0 1280 971;" xml:space="preserve">
<style type="text/css">
	.st0{fill:#FFFFFF;}
	.st1{opacity:0.3;fill:#5AB658;fill-opacity:0.52;enable-background:new    ;}
	.st2{fill:none;stroke:#042B4F;stroke-width:2;stroke-miterlimit:10;}
	.st3{opacity:8.000000e-02;fill:none;stroke:#000000;stroke-width:2;stroke-miterlimit:10;enable-background:new    ;}
	.st4{fill:#00417E;}
	.st5{fill:#5AB658;}
	.st6{opacity:0.46;fill:#FFFFFF;enable-background:new    ;}
	.st7{opacity:0.45;fill:#8286EE;fill-opacity:0.4;enable-background:new    ;}
	.st8{opacity:0.58;fill:#5AB658;enable-background:new    ;}
	.st9{opacity:0.73;fill:#5AB658;enable-background:new    ;}
	.st10{fill:#24285B;}
	.st11{fill:#F4A28C;}
	.st12{opacity:0.31;fill:#CE8172;enable-background:new    ;}
	.st13{opacity:8.000000e-02;enable-background:new    ;}
	.st14{fill:#042B4F;}
</style>
<path class="st0" d="M559,702c141.2,245.6,486,354.5,721,189V0H0v673C95.5,515.5,445.5,504.5,559,702z"/>
<path class="st1" d="M765.5,508.3c-49.6,30.2-79,85.7-74.4,143.6c2.4,29.6,13.4,58.1,42.5,73.7c77.6,41.5,416.2,42.3,466.3-31.1
	s31.5-177.9-77.5-221.4C1027.9,435.2,893.6,430.3,765.5,508.3z"/>
<path class="st2" d="M1114.8,720.4v-43.9c0-2.1,0.8-4.2,2.3-5.7c1.5-1.5,3.6-2.4,5.7-2.4h32c2.1,0,4.2,0.9,5.7,2.4
	c1.5,1.5,2.3,3.6,2.3,5.7v43.9"/>
<path class="st3" d="M1114.8,720.4v-43.9c0-2.1,0.8-4.2,2.3-5.7c1.5-1.5,3.6-2.4,5.7-2.4h32c2.1,0,4.2,0.9,5.7,2.4
	c1.5,1.5,2.3,3.6,2.3,5.7v43.9"/>
<path class="st4" d="M899.5,616.1c0,0-31.7,12.7-21.5,49.6c10.3,36.9,11.2,40.9,34.1,38.6c22.9-2.3,8.1-38.6,8.1-38.6L899.5,616.1z"
	/>
<path class="st5" d="M887.6,502.3c0,0-88,20.4-111.1,72l77.9,5.9l20-12.1L887.6,502.3z"/>
<path class="st6" d="M887.6,502.3c0,0-88,20.4-111.1,72l77.9,5.9l20-12.1L887.6,502.3z"/>
<path class="st7" d="M970.7,855.6c147.2,0,266.6-9.2,266.6-20.5s-119.4-20.5-266.6-20.5c-147.2,0-266.6,9.2-266.6,20.5
	S823.5,855.6,970.7,855.6z"/>
<path class="st5" d="M857.2,790.2c0,0-7.7,5.6-14.8,1.6c-7.1-4-13.3,1.3-8.4,7.1s25.6,8.7,25.6,8.7l7.8-12.6L857.2,790.2z"/>
<path class="st5" d="M996.1,814.8c0,0,3.4,8.9,11.5,9.5c8.1,0.6,10.4,8.4,3.1,10.6c-7.3,2.2-26.2-6.9-26.2-6.9l0.5-14.8L996.1,814.8
	z"/>
<path class="st8" d="M761,813.9c0,0-18.3-5-22.3-22.1c0,0,28.4-5.7,29.2,23.6L761,813.9z"/>
<path class="st9" d="M763.2,812.1c0,0-12.8-20.2-1.5-39.2c0,0,21.6,13.7,12,39.2L763.2,812.1z"/>
<path class="st5" d="M766.6,812.1c0,0,6.7-21.4,27.2-25.4c0,0,3.8,13.8-13.2,25.5L766.6,812.1z"/>
<path class="st10" d="M753.3,811.6l3.7,25.4l23.4,0.1l3.4-25.4L753.3,811.6z"/>
<path class="st11" d="M894.2,457c0,0,3,10.9,7.4,17.3c0.4,0.6,1,1.1,1.6,1.5s1.3,0.7,2.1,0.8c0.7,0.1,1.5,0.1,2.2,0
	c0.7-0.2,1.4-0.5,2-0.9c3.2-2.2,6.8-6.2,5.9-12.2l-0.3-10.4c-0.3-2.1-1.2-4-2.6-5.6c-1.4-1.6-3.3-2.6-5.4-3.1
	C899.7,442.3,892.2,450.5,894.2,457z"/>
<path class="st11" d="M917.1,458.5l14.7,34l-19.3,6.7l-2.9-27.5L917.1,458.5z"/>
<path class="st10" d="M919.6,460.7c0.1,0.2,0.1,0.5,0,0.7c-0.1,0.2-0.2,0.4-0.4,0.6c-1.3,1-2.9,1.5-4.6,1.4c-1.6,0-3.2-0.6-4.5-1.6
	c-1.5-1.1-2.6-2.6-3.2-4.3c-0.6-1.7-0.8-3.6-0.4-5.4c-3,1.8-6.2,3.3-9.5,4.4c-1.1,0.4-2.3,0.6-3.5,0.6l-5.7-6.9c0,0-7.3-6.3-3.3-9.8
	c4-3.5,8.2,1.1,10.6-4.2c2.3-5.3,2.7-7,7.4-6.4c4.7,0.6,1.4,5.4,7.8,2.9c6.4-2.5,7.5,0.1,8.6,3c0.2,1,0.2,2.1-0.2,3.1
	C916.7,446,917,453.7,919.6,460.7z"/>
<path class="st11" d="M908.9,461.9c0,0-1.4-4.1,1.7-4.9c3.2-0.8,5.3,5.2,1.3,7.2L908.9,461.9z"/>
<path class="st11" d="M896.5,463.8L895,469c-0.1,0.3-0.1,0.6-0.1,0.9c0.1,0.3,0.2,0.6,0.4,0.8c0.2,0.2,0.5,0.4,0.8,0.5
	c0.3,0.1,0.6,0.1,0.9,0l4.3-0.7L896.5,463.8z"/>
<path class="st10" d="M1152.9,664.6h-28.3v9.2h28.3V664.6z"/>
<path class="st12" d="M910,475.5c0,0,2.5-0.8,6.4-5.8c0,0,1.8,7.2-5.6,13.8L910,475.5z"/>
<path class="st5" d="M904.5,496.6l11.1-2c5.2-0.9,10.4-2.1,15.4-3.6c19-5.4,75-18.2,91,14.2c19.3,39.3-12.9,166.6-12.9,166.6h-88.2
	c0,0-18-53-43.8-85.8C851.3,553.1,833.3,516.6,904.5,496.6z"/>
<path class="st13" d="M887.6,502.3c0,0-4.4,28.2,34.4,6.9l-9.9-13.8C903.6,496.6,895.4,498.9,887.6,502.3z"/>
<path class="st11" d="M788.2,605.7c-17.6-5.5-20.2-29.4-4.3-38.7c5.8-3.3,12.2-5.2,18.9-5.5c29.5-2.2,79.9-4.9,79.9-4.9
	s30.3,9.9,25.6,24.6c-4.8,14.8-26.1-8.8-26.1-8.8S825.8,617.4,788.2,605.7z"/>
<path class="st10" d="M883.1,554.6l-10.3,1.4l2.9,21.1l10.3-1.4L883.1,554.6z"/>
<path class="st14" d="M883.1,552.1l-10.3,1.5l0.9,6.5l10.3-1.5L883.1,552.1z"/>
<path class="st11" d="M912,495.2c0,0-13.4,12.4,2.1,15s16.9-19.3,16.9-19.3L912,495.2z"/>
<path class="st10" d="M920.9,671.7l-66.5,118.4l17.2,12c0,0,36.7-61.3,80.5-92.1c1.4-1,3-1.6,4.7-1.9c1.7-0.2,3.4-0.1,5.1,0.5
	c1.6,0.5,3.1,1.5,4.3,2.7c1.2,1.2,2.1,2.7,2.7,4.4c11.8,36.6,12.8,100.3,12.8,100.3h20.3l7-144.2L920.9,671.7z"/>
<path class="st13" d="M920.9,671.7c0,0,33.1-26,44.8-63c0.6-1.9,1.7-3.6,3.2-4.9c1.5-1.3,3.3-2.2,5.2-2.6c1.9-0.4,3.9-0.3,5.8,0.3
	c1.9,0.6,3.6,1.7,4.9,3.1l31.5,34l6.4-35.6l-23-72.9l-43.6-28l-8.6,33.8L920.9,671.7z"/>
<path class="st14" d="M906.6,639c0,0,20.4-20.3,24.4-88c3.3-56.3,11.4-67.3,28.3-71.3c26.1-6.1,32.3,1.6,40.5,13.2
	c0,0-41.7,2.6-40.2,28.6c1.5,26.1-4.3,118.9-38.6,150.2C920.9,671.7,905,670.4,906.6,639z"/>
<path class="st6" d="M906.6,639c0,0,20.4-20.3,24.4-88c3.3-56.3,11.4-67.3,28.3-71.3c26.1-6.1,32.3,1.6,40.5,13.2
	c0,0-41.7,2.6-40.2,28.6c1.5,26.1-4.3,118.9-38.6,150.2C920.9,671.7,905,670.4,906.6,639z"/>
<path class="st11" d="M963.7,526.2c-8.6-20.8,15.4-47,36.3-38.9c17.9,6.9,36.9,22.2,47.3,53c24.6,73.2,80.1,108.6,80.1,108.6
	s28.3,4.7,28.3,15c0,10.3-33.5,0-33.5,0s-86.8-36-131.9-93.9C976.9,552.6,968.7,538,963.7,526.2z"/>
<path class="st5" d="M1015.6,596.8c0,0,34.5-11.7,43.2-28.8c0,0-12.5-67.3-56.9-81.8c-14.6-4.8-30.9,0.6-38.6,13.8
	C954.1,516.2,956.2,546,1015.6,596.8z"/>
<path class="st6" d="M1015.6,596.8c0,0,34.5-11.7,43.2-28.8c0,0-12.5-67.3-56.9-81.8c-14.6-4.8-30.9,0.6-38.6,13.8
	C954.1,516.2,956.2,546,1015.6,596.8z"/>
<path class="st14" d="M1183.9,707.3h-90.2v116.8h90.2V707.3z"/>
<path class="st10" d="M1116.8,824.2h-11v11h11V824.2z"/>
<path class="st10" d="M1170.3,824.2h-11v11h11V824.2z"/>
<path class="st13" d="M1121.2,729h-12.5v69.8h12.5V729z"/>
<path class="st13" d="M1145.1,729h-12.5v69.8h12.5V729z"/>
<path class="st13" d="M1167.5,729H1155v69.8h12.5V729z"/>
<path class="st14" d="M1009.1,460.6c20.1,0,36.4-16.3,36.4-36.4c0-20.1-16.3-36.4-36.4-36.4c-20.1,0-36.4,16.3-36.4,36.4
	C972.7,444.3,989,460.6,1009.1,460.6z"/>
<path class="st14" d="M995,424.2l-31.1,31l41.3-16.5L995,424.2z"/>
<path class="st0" d="M1011.2,407.8h-6.1v19.2h6.1V407.8z"/>
<path class="st0" d="M1011.2,432.2h-6.1v6.1h6.1V432.2z"/>
</svg>
